<?xml version="1.0" encoding="UTF-8"?>
<svg id="Layer_1" data-name="Layer 1" xmlns="http://www.w3.org/2000/svg" viewBox="0 0 500 500">
  <defs>
    <style>
      .cls-1 {
        fill: #333;
        stroke-width: 0px;
      }
    </style>
  </defs>
  <path class="cls-1" d="m123.88,218.77c.71,42.33,22.52,81.25,58.36,104.1,12.34,7.87,19.71,21.17,19.71,35.57v38.37c0,3.32,2.69,6.01,6.01,6.01h12.01c0,13.25,10.78,24.03,24.03,24.03h12.01c13.25,0,24.03-10.78,24.03-24.03h12.01c3.32,0,6.01-2.69,6.01-6.01v-38.27c0-14.39,7.2-27.83,18.79-35.09,37.13-23.23,59.3-63.17,59.3-106.83,0-34.96-13.97-67.47-39.35-91.53-25.36-24.05-58.61-36.27-93.65-34.42-66.89,3.55-120.39,61.01-119.26,128.11Zm132.12,196.06h-12.01c-6.62,0-12.01-5.39-12.01-12.01h36.04c0,6.62-5.39,12.01-12.01,12.01Zm30.03-24.03h-72.08v-12.01h72.08v12.01Zm0-32.27v8.24h-72.08v-8.34c0-1.24-.15-2.45-.23-3.67h72.55c-.09,1.26-.24,2.5-.24,3.77Zm-42.26-255.88c31.63-1.69,61.79,9.38,84.74,31.14,22.96,21.78,35.6,51.19,35.6,82.82,0,39.49-20.06,75.63-53.65,96.65-10.64,6.66-18.35,17.31-22.01,29.49h-76.92c-3.72-12.19-11.63-22.87-22.83-30.01-32.43-20.68-52.17-55.88-52.81-94.17-1.02-60.7,47.38-112.7,107.88-115.91Z"/>
  <path class="cls-1" d="m250,252.66c23.18,0,42.05-18.86,42.05-42.05s-18.86-42.05-42.05-42.05-42.05,18.86-42.05,42.05,18.86,42.05,42.05,42.05Zm0-72.08c16.56,0,30.03,13.47,30.03,30.03s-13.47,30.03-30.03,30.03-30.03-13.47-30.03-30.03,13.47-30.03,30.03-30.03Z"/>
  <rect class="cls-1" x="243.99" y="318.73" width="12.01" height="12.01"/>
  <rect class="cls-1" x="219.97" y="318.73" width="12.01" height="12.01"/>
  <rect class="cls-1" x="268.02" y="318.73" width="12.01" height="12.01"/>
  <rect class="cls-1" x="168.95" y="74.55" width="12.01" height="24.03" transform="translate(-19.84 99.08) rotate(-30)"/>
  <rect class="cls-1" x="114.02" y="129.49" width="12.01" height="24.03" transform="translate(-62.53 174.69) rotate(-60)"/>
  <rect class="cls-1" x="87.9" y="210.54" width="24.03" height="12.01"/>
  <rect class="cls-1" x="108.01" y="285.58" width="24.03" height="12.01" transform="translate(-129.71 99.08) rotate(-30)"/>
  <rect class="cls-1" x="162.94" y="340.51" width="24.03" height="12.01" transform="translate(-212.62 324.78) rotate(-60)"/>
  <rect class="cls-1" x="319.04" y="334.51" width="12.01" height="24.03" transform="translate(-129.71 208.95) rotate(-30)"/>
  <rect class="cls-1" x="373.97" y="279.57" width="12.01" height="24.03" transform="translate(-62.53 474.86) rotate(-60)"/>
  <rect class="cls-1" x="388.07" y="210.54" width="24.03" height="12.01"/>
  <rect class="cls-1" x="367.97" y="135.49" width="24.03" height="12.01" transform="translate(-19.84 208.94) rotate(-30)"/>
  <rect class="cls-1" x="313.03" y="80.56" width="24.03" height="12.01" transform="translate(87.56 324.78) rotate(-60)"/>
  <path class="cls-1" d="m159.9,228.63h14.19c.35,1.45.73,2.9,1.16,4.33l-12.29,7.1c-2.87,1.66-3.86,5.33-2.2,8.2l12.01,20.81c.8,1.38,2.11,2.39,3.65,2.8,1.53.4,3.17.19,4.56-.6l12.24-7.07c1.03,1.1,2.09,2.16,3.19,3.19l-7.07,12.24c-.8,1.38-1.01,3.02-.6,4.56.41,1.54,1.42,2.85,2.8,3.65l20.81,12.01c1.38.79,3.03,1,4.56.6,1.54-.41,2.85-1.42,3.65-2.8l7.09-12.29c1.43.43,2.87.82,4.33,1.16v14.19c0,3.32,2.69,6.01,6.01,6.01h24.03c3.32,0,6.01-2.69,6.01-6.01v-14.19c1.45-.35,2.9-.73,4.33-1.16l7.09,12.29c.8,1.38,2.11,2.39,3.65,2.8,1.53.4,3.17.19,4.56-.6l20.81-12.01c1.38-.8,2.39-2.11,2.8-3.65.41-1.54.2-3.18-.6-4.56l-7.07-12.24c1.1-1.03,2.16-2.09,3.19-3.19l12.24,7.07c1.38.79,3.02,1,4.56.6,1.54-.41,2.85-1.42,3.65-2.8l12.01-20.81c1.66-2.87.67-6.55-2.2-8.2l-12.29-7.1c.43-1.43.82-2.87,1.16-4.33h14.19c3.32,0,6.01-2.69,6.01-6.01v-24.03c0-3.32-2.69-6.01-6.01-6.01h-14.19c-.35-1.45-.73-2.9-1.16-4.33l12.29-7.1c2.87-1.66,3.86-5.33,2.2-8.2l-12.01-20.81c-1.67-2.88-5.34-3.86-8.21-2.2l-12.24,7.06c-1.03-1.09-2.09-2.16-3.19-3.19l7.07-12.23c.8-1.38,1.01-3.02.6-4.56s-1.42-2.85-2.8-3.65l-20.81-12.01c-1.38-.8-3.03-1.02-4.56-.6-1.54.41-2.85,1.42-3.65,2.8l-7.09,12.29c-1.43-.43-2.87-.82-4.33-1.16v-14.19c0-3.32-2.69-6.01-6.01-6.01h-24.03c-3.32,0-6.01,2.69-6.01,6.01v14.19c-1.45.34-2.9.73-4.33,1.16l-7.09-12.29c-.8-1.38-2.11-2.38-3.65-2.8-1.53-.42-3.18-.2-4.56.6l-20.81,12.01c-1.38.8-2.39,2.11-2.8,3.65s-.2,3.18.6,4.56l7.07,12.23c-1.1,1.03-2.16,2.1-3.19,3.19l-12.24-7.06c-2.87-1.66-6.55-.68-8.21,2.2l-12.01,20.81c-1.66,2.87-.67,6.55,2.2,8.2l12.29,7.1c-.43,1.43-.82,2.87-1.16,4.33h-14.19c-3.32,0-6.01,2.69-6.01,6.01v24.03c0,3.32,2.69,6.01,6.01,6.01Zm6.01-24.03h13.09c2.93,0,5.44-2.12,5.92-5.01.69-4.08,1.77-8.12,3.21-11.99,1.02-2.75-.09-5.83-2.63-7.3l-11.33-6.54,6.01-10.41,11.28,6.51c2.53,1.47,5.76.87,7.63-1.37,2.65-3.19,5.61-6.16,8.8-8.81,2.26-1.87,2.84-5.09,1.37-7.63l-6.52-11.28,10.41-6.01,6.54,11.33c1.46,2.54,4.55,3.65,7.3,2.62,3.87-1.44,7.91-2.52,11.99-3.21,2.89-.49,5.01-2.99,5.01-5.92v-13.09h12.01v13.09c0,2.93,2.12,5.43,5.01,5.92,4.08.69,8.12,1.77,11.99,3.21,2.75,1.03,5.84-.09,7.3-2.62l6.54-11.33,10.41,6.01-6.52,11.28c-1.47,2.54-.89,5.76,1.37,7.63,3.2,2.65,6.16,5.61,8.8,8.81,1.87,2.25,5.1,2.84,7.63,1.37l11.28-6.51,6.01,10.41-11.33,6.54c-2.54,1.47-3.65,4.55-2.63,7.3,1.44,3.87,2.52,7.91,3.21,11.99.49,2.89,2.99,5.01,5.92,5.01h13.09v12.01h-13.09c-2.93,0-5.44,2.12-5.92,5.01-.69,4.08-1.77,8.12-3.21,11.99-1.02,2.75.09,5.83,2.63,7.3l11.33,6.54-6.01,10.41-11.28-6.51c-2.54-1.48-5.77-.89-7.63,1.37-2.65,3.2-5.61,6.16-8.8,8.8-2.26,1.87-2.84,5.09-1.37,7.63l6.52,11.28-10.41,6.01-6.54-11.33c-1.46-2.55-4.55-3.63-7.3-2.63-3.87,1.44-7.91,2.52-11.99,3.21-2.89.49-5.01,2.99-5.01,5.92v13.09h-12.01v-13.09c0-2.93-2.12-5.44-5.01-5.92-4.08-.69-8.12-1.77-11.99-3.21-2.75-1-5.84.09-7.3,2.63l-6.54,11.33-10.41-6.01,6.52-11.28c1.47-2.54.89-5.77-1.37-7.63-3.2-2.65-6.16-5.61-8.8-8.8-1.86-2.25-5.09-2.84-7.63-1.37l-11.28,6.51-6.01-10.41,11.33-6.54c2.54-1.47,3.65-4.55,2.63-7.3-1.44-3.87-2.52-7.91-3.21-11.99-.49-2.89-2.99-5.01-5.92-5.01h-13.09v-12.01Z"/>
</svg>