<?xml version="1.0" encoding="UTF-8"?>
<svg id="Layer_1" data-name="Layer 1" xmlns="http://www.w3.org/2000/svg" viewBox="0 0 500 500">
  <defs>
    <style>
      .cls-1 {
        fill: #333;
        stroke-width: 0px;
      }
    </style>
  </defs>
  <path class="cls-1" d="m373.79,160.11c-.94-9.56-1.91-19.45-7.74-27.47-5.89-8.09-15.03-12.07-23.88-15.92-5.23-2.27-10.17-4.42-14.07-7.26-3.82-2.78-7.34-6.78-11.07-11.01-6.41-7.28-13.04-14.81-22.7-17.95-9.26-3.01-18.88-.89-28.18,1.15-5.7,1.25-11.09,2.43-16.15,2.43s-10.45-1.18-16.15-2.43c-9.3-2.04-18.91-4.15-28.18-1.15-9.66,3.14-16.29,10.67-22.7,17.95-3.72,4.23-7.24,8.22-11.06,11-3.9,2.84-8.84,4.99-14.07,7.26-8.84,3.85-17.99,7.82-23.88,15.92-5.83,8.02-6.8,17.9-7.74,27.47-.56,5.72-1.09,11.11-2.61,15.78-1.42,4.38-4.09,8.89-6.92,13.66-4.74,8-10.12,17.06-10.12,27.41s5.38,19.41,10.12,27.41c2.83,4.77,5.5,9.28,6.92,13.66,1.52,4.67,2.05,10.07,2.61,15.78.94,9.56,1.91,19.46,7.74,27.46,5.89,8.1,15.04,12.08,23.88,15.93.53.23,1.04.46,1.56.69l-37.07,64.25c-1.11,1.92-1.07,4.29.1,6.17s3.26,2.96,5.49,2.83l39.19-2.51,17.45,35.22c.98,1.98,2.98,3.27,5.19,3.33.06,0,.13,0,.19,0,2.14,0,4.13-1.14,5.2-3l41.9-72.61c4.53-.96,8.86-1.75,12.96-1.75s8.43.79,12.96,1.75l41.9,72.61c1.08,1.86,3.06,3,5.2,3,.06,0,.13,0,.19,0,2.21-.06,4.21-1.35,5.19-3.33l17.45-35.22,39.19,2.51c2.22.09,4.32-.95,5.49-2.83,1.17-1.88,1.21-4.25.1-6.17l-37.07-64.25c.52-.23,1.03-.46,1.56-.69,8.84-3.85,17.99-7.82,23.88-15.92,5.83-8.01,6.8-17.9,7.74-27.47.56-5.71,1.09-11.11,2.61-15.78,1.42-4.38,4.09-8.89,6.92-13.66,4.74-8,10.12-17.06,10.12-27.41s-5.38-19.41-10.12-27.41c-2.83-4.77-5.5-9.28-6.92-13.66-1.52-4.67-2.05-10.06-2.61-15.78Zm-183.45,248.35l-14.24-28.75c-1.07-2.17-3.39-3.42-5.77-3.33l-31.99,2.05,31.8-55.12c.59.38,1.21.74,1.76,1.14,3.82,2.78,7.34,6.78,11.07,11.01,6.41,7.28,13.04,14.8,22.7,17.94,3.32,1.08,6.69,1.5,10.08,1.5,1.9,0,3.81-.16,5.72-.39l-31.13,53.95Zm171.32-30.03l-31.99-2.05c-2.4-.1-4.69,1.16-5.77,3.33l-14.24,28.75-31.12-53.94c5.3.62,10.6.57,15.8-1.12,9.66-3.14,16.29-10.67,22.7-17.95,3.72-4.23,7.24-8.22,11.06-11,.55-.4,1.17-.76,1.76-1.14l31.8,55.12Zm11.32-140.18c-3.04,5.12-6.18,10.42-8.02,16.07-1.92,5.91-2.54,12.22-3.14,18.32-.82,8.34-1.59,16.2-5.5,21.57-3.97,5.45-11.25,8.62-18.96,11.97-5.59,2.43-11.37,4.94-16.34,8.56-4.89,3.56-9.02,8.25-13.01,12.78-5.59,6.35-10.87,12.34-17.39,14.46-6.16,2-13.81.32-21.9-1.45-6.08-1.34-12.36-2.72-18.73-2.72s-12.65,1.38-18.73,2.72c-8.09,1.78-15.74,3.45-21.9,1.45-6.53-2.12-11.81-8.11-17.39-14.46-3.99-4.53-8.12-9.21-13.01-12.78-4.97-3.61-10.75-6.13-16.34-8.56-7.71-3.36-14.99-6.52-18.96-11.98-3.91-5.37-4.68-13.24-5.5-21.57-.6-6.1-1.22-12.41-3.14-18.32-1.83-5.65-4.98-10.95-8.02-16.07-4.34-7.32-8.44-14.23-8.44-21.29s4.1-13.97,8.44-21.29c3.04-5.12,6.18-10.42,8.02-16.07,1.92-5.91,2.54-12.22,3.14-18.32.82-8.33,1.59-16.2,5.5-21.57,3.97-5.45,11.25-8.62,18.95-11.97,5.59-2.43,11.38-4.95,16.34-8.56,4.89-3.56,9.02-8.25,13.01-12.78,5.59-6.35,10.87-12.34,17.39-14.46,1.99-.65,4.13-.91,6.38-.91,4.75,0,10.03,1.16,15.51,2.36,6.08,1.33,12.36,2.71,18.73,2.71s12.65-1.38,18.73-2.71c8.09-1.78,15.74-3.46,21.9-1.46,6.53,2.12,11.81,8.11,17.39,14.46,3.99,4.53,8.12,9.22,13.01,12.78,4.97,3.62,10.75,6.13,16.34,8.56,7.7,3.35,14.98,6.52,18.95,11.97,3.91,5.37,4.68,13.24,5.5,21.57.6,6.1,1.22,12.41,3.14,18.32,1.83,5.65,4.98,10.95,8.02,16.07,4.34,7.32,8.44,14.23,8.44,21.29s-4.1,13.97-8.44,21.29Z"/>
  <path class="cls-1" d="m250,114.85c-56.3,0-102.11,45.8-102.11,102.11s45.8,102.11,102.11,102.11,102.11-45.8,102.11-102.11-45.8-102.11-102.11-102.11Zm0,192.21c-49.68,0-90.1-40.41-90.1-90.1s40.42-90.1,90.1-90.1,90.1,40.42,90.1,90.1-40.42,90.1-90.1,90.1Z"/>
  <path class="cls-1" d="m292.05,168.97v-.06h-84.09v.06c-1.99.02-3.87.93-5,2.61l-24.03,36.04c-1.53,2.3-1.3,5.35.57,7.39l66.07,72.08c1.14,1.24,2.75,1.95,4.43,1.95s3.29-.7,4.43-1.95l66.07-72.08c1.87-2.04,2.1-5.09.57-7.39l-24.03-36.04c-1.12-1.68-3.01-2.61-5-2.62Zm-8.33,11.95l-5.98,17.95-14.92-17.95h20.91Zm-16.56,24.03h-34.36l17.2-20.64,17.16,20.64Zm-29.98-24.03l-14.96,17.95-5.95-17.95h20.91Zm-31.05,7.57l5.45,16.46h-16.42l10.97-16.46Zm-8.54,28.47h18.38l15.32,36.77-33.7-36.77Zm52.42,50.46l-21.02-50.46h42.05l-21.02,50.46Zm18.72-13.69l15.32-36.77h18.38l-33.7,36.77Zm19.65-48.78l5.49-16.48,10.99,16.48h-16.48Z"/>
  <rect class="cls-1" x="81.82" y="72.81" width="12.01" height="12.01"/>
  <rect class="cls-1" x="69.81" y="84.82" width="12.01" height="12.01"/>
  <rect class="cls-1" x="93.83" y="84.82" width="12.01" height="12.01"/>
  <rect class="cls-1" x="81.82" y="96.84" width="12.01" height="12.01"/>
  <rect class="cls-1" x="406.17" y="253" width="12.01" height="12.01"/>
  <rect class="cls-1" x="394.15" y="265.02" width="12.01" height="12.01"/>
  <rect class="cls-1" x="418.18" y="265.02" width="12.01" height="12.01"/>
  <rect class="cls-1" x="406.17" y="277.03" width="12.01" height="12.01"/>
  <rect class="cls-1" x="394.15" y="84.82" width="12.01" height="12.01"/>
  <rect class="cls-1" x="382.14" y="96.84" width="12.01" height="12.01"/>
  <rect class="cls-1" x="406.17" y="96.84" width="12.01" height="12.01"/>
  <rect class="cls-1" x="394.15" y="108.85" width="12.01" height="12.01"/>
  <rect class="cls-1" x="81.82" y="120.86" width="12.01" height="12.01"/>
  <rect class="cls-1" x="394.15" y="132.87" width="12.01" height="12.01"/>
  <rect class="cls-1" x="406.17" y="301.05" width="12.01" height="12.01"/>
</svg>