<?xml version="1.0" encoding="UTF-8"?>
<svg id="Layer_1" data-name="Layer 1" xmlns="http://www.w3.org/2000/svg" viewBox="0 0 500 500">
  <defs>
    <style>
      .cls-1 {
        fill: #333;
        stroke-width: 0px;
      }
    </style>
  </defs>
  <path class="cls-1" d="m75.81,424.19h204.22c3.32,0,6.01-2.69,6.01-6.01v-36.04c0-3.32-2.69-6.01-6.01-6.01h-12.01v-30.03c0-3.32-2.69-6.01-6.01-6.01h-18.53l-13.78-156.17h8.28c3.32,0,6.01-2.69,6.01-6.01v-30.03h12.01c3.32,0,6.01-2.69,6.01-6.01v-60.06c0-3.32-2.69-6.01-6.01-6.01h-36.04c-3.32,0-6.01,2.69-6.01,6.01v18.02h-12.01v-18.02c0-3.32-2.69-6.01-6.01-6.01h-36.04c-3.32,0-6.01,2.69-6.01,6.01v18.02h-12.01v-18.02c0-3.32-2.69-6.01-6.01-6.01h-36.04c-3.32,0-6.01,2.69-6.01,6.01v60.06c0,3.32,2.69,6.01,6.01,6.01h12.01v30.03c0,3.32,2.69,6.01,6.01,6.01h8.28l-13.78,156.17h-18.53c-3.32,0-6.01,2.69-6.01,6.01v30.03h-12.01c-3.32,0-6.01,2.69-6.01,6.01v36.04c0,3.32,2.69,6.01,6.01,6.01Zm30.03-288.31v-48.05h24.03v18.02c0,3.32,2.69,6.01,6.01,6.01h24.03c3.32,0,6.01-2.69,6.01-6.01v-18.02h24.03v18.02c0,3.32,2.69,6.01,6.01,6.01h24.03c3.32,0,6.01-2.69,6.01-6.01v-18.02h24.03v48.05H105.85Zm18.02,36.04v-24.03h108.12v24.03h-108.12Zm99.08,72.08l2.12,24.03h-94.29l2.12-24.03h90.05Zm-88.99-12.01l4.24-48.05h79.45l4.24,48.05h-87.93Zm-4.24,48.05h96.41l5.3,60.06h-107.01l5.3-60.06Zm-29.88,72.08h156.17v24.03H99.84v-24.03Zm-18.02,36.04h192.21v24.03H81.82v-24.03Z"/>
  <rect class="cls-1" x="171.92" y="316.07" width="12.01" height="12.01"/>
  <rect class="cls-1" x="195.94" y="316.07" width="12.01" height="12.01"/>
  <rect class="cls-1" x="147.89" y="316.07" width="12.01" height="12.01"/>
  <path class="cls-1" d="m406.17,165.91c-13.25,0-24.03,10.78-24.03,24.03s10.78,24.03,24.03,24.03,24.03-10.78,24.03-24.03-10.78-24.03-24.03-24.03Zm0,36.04c-6.63,0-12.01-5.39-12.01-12.01s5.39-12.01,12.01-12.01,12.01,5.39,12.01,12.01-5.39,12.01-12.01,12.01Z"/>
  <path class="cls-1" d="m349.05,196.51l-7.19,7.2,8.49,8.49,18.02-18.02c2.35-2.35,2.35-6.15,0-8.49l-18.02-18.02-8.49,8.49,8.18,8.18c-44.17,3.95-79.17,39.9-81.75,84.45-10.47,2.59-18.28,11.99-18.28,23.26,0,13.25,10.78,24.03,24.03,24.03s24.03-10.78,24.03-24.03c0-11.07-7.56-20.32-17.76-23.09,2.44-37.67,31.63-68.12,68.76-72.44Zm-63.01,95.53c0,6.62-5.39,12.01-12.01,12.01s-12.01-5.39-12.01-12.01,5.39-12.01,12.01-12.01,12.01,5.39,12.01,12.01Z"/>
  <polygon class="cls-1" points="300.11 147.89 312.85 135.15 325.6 147.89 334.09 139.4 321.35 126.65 334.09 113.91 325.6 105.42 312.85 118.16 300.11 105.42 291.62 113.91 304.36 126.65 291.62 139.4 300.11 147.89"/>
  <polygon class="cls-1" points="382.84 225.55 370.1 238.29 357.35 225.55 348.86 234.04 361.6 246.78 348.86 259.52 357.35 268.02 370.1 255.28 382.84 268.02 391.33 259.52 378.59 246.78 391.33 234.04 382.84 225.55"/>
  <polygon class="cls-1" points="406.9 366.91 394.15 379.65 381.41 366.91 372.92 375.41 385.66 388.15 372.92 400.89 381.41 409.38 394.15 396.64 406.9 409.38 415.39 400.89 402.65 388.15 415.39 375.41 406.9 366.91"/>
  <polygon class="cls-1" points="344.04 304.06 331.3 316.8 318.56 304.06 310.06 312.55 322.81 325.29 310.06 338.04 318.56 346.53 331.3 333.79 344.04 346.53 352.54 338.04 339.79 325.29 352.54 312.55 344.04 304.06"/>
</svg>